. 
  
http://www.torrentday.com/        :     The Hottest Private Tracker On The Net!!!
 
http://www.torrentday.com          :     Once & For all ;)


               www . TorrentDay . Com 

(((((((((((((= Enjoy No RAR releases =))))))))))))))))))))


...................................NFO:....................................

.[img]http://img827.imageshack.us/img827/9447/sunsetu.jpg[/img]

[color=blue][size=5][b]The Sunset Limited 2011 BDRip READNFO XVID AC3 HQ Hive-CM8[/b][/size][/color]



[b]Thx Hive

CM8 Doing It Right The First Time :D

Why download a touched up rip of a rip BRrip
Get the real deal BDRip
Enjoy

Source: some kind of 1080er Plate Transfer, looks like a bluray to me

Enjoy this very early 2011 release
Cant find a cinema date, or a rental date!

Video: 720x400 @bitrate 2000 2pass
Audio: English AC3 5.1 @384
Sample: yes included[/b]
 
http://www.imdb.com/title/tt1510938/


General
Complete name                    : The.Sunset.Limited.2011.BDRip.XVID.AC3.HQ.Hive-CM8.avi
Format                           : AVI
Format/Info                      : Audio Video Interleave
File size                        : 1.52 GiB
Duration                         : 1h 30mn
Overall bit rate                 : 2 396 Kbps
Writing application              : Nandub v1.0rc2
Writing library                  : Nandub build 1853/release

Video
ID                               : 0
Format                           : MPEG-4 Visual
Format profile                   : Advanced Simple@L5
Format settings, BVOP            : Yes
Format settings, QPel            : Yes
Format settings, GMC             : No warppoints
Format settings, Matrix          : Default (H.263)
Muxing mode                      : Packed bitstream
Codec ID                         : XVID
Codec ID/Hint                    : XviD
Duration                         : 1h 30mn
Bit rate                         : 2 003 Kbps
Width                            : 720 pixels
Height                           : 400 pixels
Display aspect ratio             : 16:9
Frame rate                       : 23.976 fps
Color space                      : YUV
Chroma subsampling               : 4:2:0
Bit depth                        : 8 bits
Scan type                        : Progressive
Bits/(Pixel*Frame)               : 0.290
Stream size                      : 1.27 GiB (84%)
Writing library                  : XviD 1.2.1 (UTC 2008-12-04)

Audio
ID                               : 1
Format                           : AC-3
Format/Info                      : Audio Coding 3
Mode extension                   : CM (complete main)
Codec ID                         : 2000
Duration                         : 1h 30mn
Bit rate mode                    : Constant
Bit rate                         : 384 Kbps
Channel(s)                       : 6 channels
Channel positions                : Front: L C R, Side: L R, LFE
Sampling rate                    : 48.0 KHz
Bit depth                        : 16 bits
Stream size                      : 250 MiB (16%)
Alignment                        : Split accross interleaves
Interleave, duration             : 42 ms (1.00 video frame)
Interleave, preload duration     : 500 ms



Samuel L. Jackson  ... 	Black
Tommy Lee Jones	   ... 	White



A God-fearing ex-con (Samuel L. Jackson) saves a despondent college 
professor (Tommy Lee Jones) from throwing himself in front of a speeding 
subway train, and struggles to comprehend the suicidal man's unwavering despair 
during a series of intense philosophical debates. 



[img]http://img42.imageshack.us/img42/492/67142068.png[/img]
[img]http://img717.imageshack.us/img717/133/sussusuususu.png[/img]
[img]http://img810.imageshack.us/img810/5245/sussusuusususu.png[/img]
[img]http://img576.imageshack.us/img576/5249/sussuususu.png[/img]
[img]http://img148.imageshack.us/img148/9382/susu.png[/img]
[img]http://img535.imageshack.us/img535/3319/sususu.png[/img]
[img]http://img703.imageshack.us/img703/2728/susususu.png[/img]





Greetz

iNK,LUSi,,MAGNET,CLASSiFiED,THC,LEGi0N,T0XiC,IMAGiNE,ViSiON,WBZ,FLAWL3SS,NOVA
Vik,Rapeseed,D2U,SAFC,goldadvance,MEMORY100,KaN1vE,Unevano,Pinnz,Wayne,Mr Hive
and all P2P groups 
Great Work Guys :D

ps: instead of doing a (VIP Internal ONLY) movie, i want to share with the rest of the pirates.
So come on and let the Elephant run free its already 2 days!
:P